<svg xmlns="http://www.w3.org/2000/svg" width="1200" height="520" viewBox="0 0 1200 520">
<defs>
<linearGradient id="bg" x1="0" x2="1" y1="0" y2="1">
<stop offset="0%" stop-color="#0f172a"/>
<stop offset="100%" stop-color="#111827"/>
</linearGradient>
</defs>
<rect width="1200" height="520" rx="24" fill="url(#bg)"/>
<rect x="28" y="28" width="1144" height="464" rx="20" fill="#111827" stroke="#334155"/>
<text x="56" y="76" fill="#f8fafc" font-size="28" font-weight="700">Baseline Scenario • Strategy CAGR Comparison</text>
<text x="56" y="108" fill="#94a3b8" font-size="16">90d research model • Source=coingecko • CALM 10 / NORMAL 65 / STORM 14 • As of 2026-03-06</text>
<text x="264" y="146" text-anchor="end" fill="#64748b" font-size="14">0%</text>
<line x1="280" y1="150" x2="280" y2="422" stroke="#475569" stroke-width="2"/>
<line x1="140" y1="150" x2="140" y2="422" stroke="#1f2937" stroke-width="1" stroke-dasharray="4 6"/>
<text x="140" y="146" text-anchor="middle" fill="#64748b" font-size="12">-10%</text>
<line x1="280.0" y1="150" x2="280.0" y2="422" stroke="#1f2937" stroke-width="1" stroke-dasharray="4 6"/>
<text x="280.0" y="146" text-anchor="middle" fill="#64748b" font-size="12">0%</text>
<line x1="462.6586326809126" y1="150" x2="462.6586326809126" y2="422" stroke="#1f2937" stroke-width="1" stroke-dasharray="4 6"/>
<text x="462.6586326809126" y="146" text-anchor="middle" fill="#64748b" font-size="12">10%</text>
<line x1="645.3172653618252" y1="150" x2="645.3172653618252" y2="422" stroke="#1f2937" stroke-width="1" stroke-dasharray="4 6"/>
<text x="645.3172653618252" y="146" text-anchor="middle" fill="#64748b" font-size="12">20%</text>
<line x1="730" y1="150" x2="730" y2="422" stroke="#1f2937" stroke-width="1" stroke-dasharray="4 6"/>
<text x="730" y="146" text-anchor="middle" fill="#64748b" font-size="12">30%</text>
<text x="56" y="193" fill="#e2e8f0" font-size="17" font-weight="600">Dynamic</text>
<rect x="280" y="170" width="260.96877962001463" height="34" rx="10" fill="#2563eb"/>
<text x="550.9687796200146" y="193" text-anchor="start" fill="#f8fafc" font-size="16" font-weight="700">14.29%</text>
<text x="56" y="253" fill="#e2e8f0" font-size="17" font-weight="600">Fixed Normal</text>
<rect x="280" y="230" width="238.98922054646778" height="34" rx="10" fill="#0f766e"/>
<text x="528.9892205464678" y="253" text-anchor="start" fill="#f8fafc" font-size="16" font-weight="700">13.08%</text>
<text x="56" y="313" fill="#e2e8f0" font-size="17" font-weight="600">Pure Alp</text>
<rect x="280" y="290" width="430.0" height="34" rx="10" fill="#7c3aed"/>
<text x="720.0" y="313" text-anchor="start" fill="#f8fafc" font-size="16" font-weight="700">23.54%</text>
<text x="56" y="373" fill="#e2e8f0" font-size="17" font-weight="600">Pure Lp</text>
<rect x="253.7480574692401" y="350" width="26.25194253075989" height="34" rx="10" fill="#dc2626"/>
<text x="243.7480574692401" y="373" text-anchor="end" fill="#f8fafc" font-size="16" font-weight="700">-1.44%</text>
<rect x="820" y="148" width="308" height="290" rx="18" fill="#0f172a" stroke="#334155"/>
<text x="844" y="184" fill="#f8fafc" font-size="22" font-weight="700">Dynamic Snapshot</text>
<text x="844" y="220" fill="#93c5fd" font-size="15">CAGR</text>
<text x="1040" y="220" text-anchor="end" fill="#f8fafc" font-size="15" font-weight="700">14.29%</text>
<text x="844" y="252" fill="#93c5fd" font-size="15">Max Drawdown</text>
<text x="1040" y="252" text-anchor="end" fill="#f8fafc" font-size="15" font-weight="700">-0.06%</text>
<text x="844" y="284" fill="#93c5fd" font-size="15">Trade Days</text>
<text x="1040" y="284" text-anchor="end" fill="#f8fafc" font-size="15" font-weight="700">5</text>
<text x="844" y="316" fill="#93c5fd" font-size="15">Turnover</text>
<text x="1040" y="316" text-anchor="end" fill="#f8fafc" font-size="15" font-weight="700">100.23%</text>
<text x="844" y="348" fill="#93c5fd" font-size="15">Funding Cost</text>
<text x="1040" y="348" text-anchor="end" fill="#f8fafc" font-size="15" font-weight="700">$492</text>
<text x="844" y="380" fill="#93c5fd" font-size="15">Rebalance Cost</text>
<text x="1040" y="380" text-anchor="end" fill="#f8fafc" font-size="15" font-weight="700">$265</text>
<text x="844" y="412" fill="#93c5fd" font-size="15">Gas Cost</text>
<text x="1040" y="412" text-anchor="end" fill="#f8fafc" font-size="15" font-weight="700">$38</text>
<text x="56" y="468" fill="#94a3b8" font-size="15">Interpretation: dynamic is the diversified automation benchmark; pure ALP is a concentration benchmark and pure LP is the IL stress benchmark.</text>
</svg>